<svg xmlns="http://www.w3.org/2000/svg" viewBox="0 0 180 180" fill="none" shape-rendering="auto"><metadata xmlns:rdf="http://www.w3.org/1999/02/22-rdf-syntax-ns#" xmlns:xsi="http://www.w3.org/2001/XMLSchema-instance" xmlns:dc="http://purl.org/dc/elements/1.1/" xmlns:dcterms="http://purl.org/dc/terms/"><rdf:RDF><rdf:Description><dc:title>Bottts</dc:title><dc:creator>Pablo Stanley</dc:creator><dc:source xsi:type="dcterms:URI">https://bottts.com/</dc:source><dcterms:license xsi:type="dcterms:URI">https://bottts.com/</dcterms:license><dc:rights>Remix of „Bottts” (https://bottts.com/) by „Pablo Stanley”, licensed under „Free for personal and commercial use” (https://bottts.com/)</dc:rights></rdf:Description></rdf:RDF></metadata><mask id="viewboxMask"><rect width="180" height="180" rx="0" ry="0" x="0" y="0" fill="#fff" /></mask><g mask="url(#viewboxMask)"><g transform="translate(0 66)"><mask id="sidesSquare-a" style="mask-type:luminance" maskUnits="userSpaceOnUse" x="14" y="16" width="152" height="44"><g fill="#fff"><rect x="14" y="16" width="36" height="44" rx="9"/><rect x="130" y="16" width="36" height="44" rx="9"/></g></mask><g mask="url(#sidesSquare-a)"><path d="M0 0h180v76H0V0Z" fill="#5e35b1"/><path d="M0 0h180v76H0V0Z" fill="#fff" fill-opacity=".3"/><path fill="#000" fill-opacity=".1" d="M0 38h180v38H0z"/></g></g><g transform="translate(41)"><mask id="topPyramid-a" style="mask-type:luminance" maskUnits="userSpaceOnUse" x="18" y="8" width="64" height="44"><path fill-rule="evenodd" clip-rule="evenodd" d="m50 8 32 44H18L50 8Z" fill="#fff"/></mask><g mask="url(#topPyramid-a)"><path d="M0 0h100v52H0V0Z" fill="#5e35b1"/><path d="M0 0h100v52H0V0Z" fill="#fff" fill-opacity=".3"/><path fill="#fff" fill-opacity=".8" d="M50 4h30v48H50z"/></g></g><g transform="translate(25 44)"><mask id="faceSquare03-a" style="mask-type:luminance" maskUnits="userSpaceOnUse" x="0" y="0" width="130" height="120"><path fill-rule="evenodd" clip-rule="evenodd" d="M0 18A18 18 0 0 1 18 0h94a18 18 0 0 1 18 18v27.15a40 40 0 0 1-2.28 13.31L110.24 108a18 18 0 0 1-16.98 12H36.74a18 18 0 0 1-16.98-12L2.28 58.45A40 40 0 0 1 0 45.15V18Z" fill="#fff"/></mask><g mask="url(#faceSquare03-a)"><path d="M-2-2h134v124H-2V-2Z" fill="#5e35b1"/><g transform="translate(-1 -1)"></g></g></g><g transform="translate(52 124)"><rect x="4" y="4" width="68" height="24" rx="5" fill="#000" fill-opacity=".2"/><rect x="8" y="8" width="60" height="16" rx="2" fill="#000" fill-opacity=".8"/><path d="M9 17h11l2-4 3 7 4-8 2 9 3-11 3 10 3-3h15l3-4 2 7 3-3h4" stroke="#4EFAC9" stroke-width="2" stroke-linecap="round" stroke-linejoin="round"/></g><g transform="translate(38 76)"><g fill="#fff"><circle cx="24" cy="30" r="6"/><circle cx="80" cy="30" r="6"/></g></g></g></svg>