<svg xmlns="http://www.w3.org/2000/svg" viewBox="0 0 180 180" fill="none" shape-rendering="auto"><metadata xmlns:rdf="http://www.w3.org/1999/02/22-rdf-syntax-ns#" xmlns:xsi="http://www.w3.org/2001/XMLSchema-instance" xmlns:dc="http://purl.org/dc/elements/1.1/" xmlns:dcterms="http://purl.org/dc/terms/"><rdf:RDF><rdf:Description><dc:title>Bottts</dc:title><dc:creator>Pablo Stanley</dc:creator><dc:source xsi:type="dcterms:URI">https://bottts.com/</dc:source><dcterms:license xsi:type="dcterms:URI">https://bottts.com/</dcterms:license><dc:rights>Remix of „Bottts” (https://bottts.com/) by „Pablo Stanley”, licensed under „Free for personal and commercial use” (https://bottts.com/)</dc:rights></rdf:Description></rdf:RDF></metadata><mask id="viewboxMask"><rect width="180" height="180" rx="0" ry="0" x="0" y="0" fill="#fff" /></mask><g mask="url(#viewboxMask)"><g transform="translate(0 66)"><mask id="sidesAntenna02-a" style="mask-type:luminance" maskUnits="userSpaceOnUse" x="10" y="9" width="160" height="51"><g fill="#fff"><rect x="10" y="28" width="36" height="32" rx="4"/><path d="M160 9h2v20h-2z"/><rect x="134" y="28" width="36" height="32" rx="4"/></g></mask><g mask="url(#sidesAntenna02-a)"><path d="M0 0h180v76H0V0Z" fill="#43a047"/><path d="M0 0h180v76H0V0Z" fill="#fff" fill-opacity=".3"/><path fill="#000" fill-opacity=".1" d="M0 38h180v38H0z"/></g><path fill="#fff" fill-opacity=".4" d="M160 8h2v20h-2z"/><circle cx="161" cy="5" r="4" fill="#E1E6E8"/><circle cx="162" cy="4" r="2" fill="#fff"/></g><g transform="translate(41)"><mask id="topPyramid-a" style="mask-type:luminance" maskUnits="userSpaceOnUse" x="18" y="8" width="64" height="44"><path fill-rule="evenodd" clip-rule="evenodd" d="m50 8 32 44H18L50 8Z" fill="#fff"/></mask><g mask="url(#topPyramid-a)"><path d="M0 0h100v52H0V0Z" fill="#43a047"/><path d="M0 0h100v52H0V0Z" fill="#fff" fill-opacity=".3"/><path fill="#fff" fill-opacity=".8" d="M50 4h30v48H50z"/></g></g><g transform="translate(25 44)"><mask id="faceSquare04-a" style="mask-type:luminance" maskUnits="userSpaceOnUse" x="0" y="0" width="130" height="120"><path fill-rule="evenodd" clip-rule="evenodd" d="M0 102V68.85a40 40 0 0 1 2.28-13.31L19.76 12A18 18 0 0 1 36.74 0h56.52a18 18 0 0 1 16.98 12l17.48 43.54A40 40 0 0 1 130 68.85V102a18 18 0 0 1-18 18H18a18 18 0 0 1-18-18Z" fill="#fff"/></mask><g mask="url(#faceSquare04-a)"><path d="M-2-2h134v124H-2V-2Z" fill="#43a047"/><g transform="translate(-1 -1)"></g></g></g><g transform="translate(52 124)"><g fill="#000" fill-opacity=".6"><rect x="28" y="10" width="6" height="14" rx="2"/><rect x="14" y="10" width="6" height="14" rx="2"/><rect x="42" y="10" width="6" height="14" rx="2"/><rect x="56" y="10" width="6" height="14" rx="2"/></g></g><g transform="translate(38 76)"><path d="m18 19 12-2M20 31c0-3.31 2.9-6 7-6 3.1 0 6 2.69 6 6M86 20l-12-3M84 31c0-3.31-2.9-6-6-6-4.1 0-7 2.69-7 6" stroke="#000" stroke-width="4" stroke-linecap="round" stroke-linejoin="round"/></g></g></svg>