<svg xmlns="http://www.w3.org/2000/svg" viewBox="0 0 180 180" fill="none" shape-rendering="auto"><metadata xmlns:rdf="http://www.w3.org/1999/02/22-rdf-syntax-ns#" xmlns:xsi="http://www.w3.org/2001/XMLSchema-instance" xmlns:dc="http://purl.org/dc/elements/1.1/" xmlns:dcterms="http://purl.org/dc/terms/"><rdf:RDF><rdf:Description><dc:title>Bottts</dc:title><dc:creator>Pablo Stanley</dc:creator><dc:source xsi:type="dcterms:URI">https://bottts.com/</dc:source><dcterms:license xsi:type="dcterms:URI">https://bottts.com/</dcterms:license><dc:rights>Remix of „Bottts” (https://bottts.com/) by „Pablo Stanley”, licensed under „Free for personal and commercial use” (https://bottts.com/)</dc:rights></rdf:Description></rdf:RDF></metadata><mask id="viewboxMask"><rect width="180" height="180" rx="0" ry="0" x="0" y="0" fill="#fff" /></mask><g mask="url(#viewboxMask)"><g transform="translate(0 66)"><mask id="sidesSquare-a" style="mask-type:luminance" maskUnits="userSpaceOnUse" x="14" y="16" width="152" height="44"><g fill="#fff"><rect x="14" y="16" width="36" height="44" rx="9"/><rect x="130" y="16" width="36" height="44" rx="9"/></g></mask><g mask="url(#sidesSquare-a)"><path d="M0 0h180v76H0V0Z" fill="#f4511e"/><path d="M0 0h180v76H0V0Z" fill="#fff" fill-opacity=".3"/><path fill="#000" fill-opacity=".1" d="M0 38h180v38H0z"/></g></g><g transform="translate(41)"><mask id="topLights-a" style="mask-type:luminance" maskUnits="userSpaceOnUse" x="10" y="22" width="80" height="30"><g fill="#fff"><path d="M10 42c0-1.1.9-2 2-2h76a2 2 0 0 1 2 2v10H10V42Z"/><path d="M18 27a5 5 0 0 1 5-5h6a5 5 0 0 1 5 5v25H18V27ZM42 27a5 5 0 0 1 5-5h6a5 5 0 0 1 5 5v25H42V27ZM66 27a5 5 0 0 1 5-5h6a5 5 0 0 1 5 5v25H66V27Z"/></g></mask><g mask="url(#topLights-a)"><path d="M0 0h100v52H0V0Z" fill="#f4511e"/><path d="M0 0h100v52H0V0Z" fill="#fff" fill-opacity=".3"/><path fill="#fff" fill-opacity=".6" d="M0 0h100v40H0z"/><rect x="24" y="28" width="4" height="8" rx="2" fill="#fff" fill-opacity=".6"/><rect x="48" y="28" width="4" height="8" rx="2" fill="#fff" fill-opacity=".6"/><rect x="72" y="28" width="4" height="8" rx="2" fill="#fff" fill-opacity=".6"/></g></g><g transform="translate(25 44)"><mask id="faceSquare01-a" style="mask-type:luminance" maskUnits="userSpaceOnUse" x="0" y="0" width="130" height="120"><rect width="130" height="120" rx="18" fill="#fff"/></mask><g mask="url(#faceSquare01-a)"><path d="M-2-2h134v124H-2V-2Z" fill="#f4511e"/><g transform="translate(-1 -1)"></g></g></g><g transform="translate(52 124)"><path d="M27.05 8.44a2 2 0 1 1 3.9-.88C31.72 10.96 34.4 13 38 13c3.6 0 6.28-2.04 7.05-5.44a2 2 0 1 1 3.9.88C47.75 13.7 43.43 17 38 17s-9.76-3.3-10.95-8.56Z" fill="#000" fill-opacity=".6"/></g><g transform="translate(38 76)"><rect y="11" width="104" height="34" rx="17" fill="#000" fill-opacity=".8"/><circle cx="29" cy="28" r="13" fill="#F1EEDA"/><circle cx="75" cy="28" r="13" fill="#F1EEDA"/><rect x="24" y="23" width="10" height="10" rx="2" fill="#000" fill-opacity=".8"/><rect x="70" y="23" width="10" height="10" rx="2" fill="#000" fill-opacity=".8"/></g></g></svg>