<svg xmlns="http://www.w3.org/2000/svg" viewBox="0 0 180 180" fill="none" shape-rendering="auto"><metadata xmlns:rdf="http://www.w3.org/1999/02/22-rdf-syntax-ns#" xmlns:xsi="http://www.w3.org/2001/XMLSchema-instance" xmlns:dc="http://purl.org/dc/elements/1.1/" xmlns:dcterms="http://purl.org/dc/terms/"><rdf:RDF><rdf:Description><dc:title>Bottts</dc:title><dc:creator>Pablo Stanley</dc:creator><dc:source xsi:type="dcterms:URI">https://bottts.com/</dc:source><dcterms:license xsi:type="dcterms:URI">https://bottts.com/</dcterms:license><dc:rights>Remix of „Bottts” (https://bottts.com/) by „Pablo Stanley”, licensed under „Free for personal and commercial use” (https://bottts.com/)</dc:rights></rdf:Description></rdf:RDF></metadata><mask id="viewboxMask"><rect width="180" height="180" rx="0" ry="0" x="0" y="0" fill="#fff" /></mask><g mask="url(#viewboxMask)"><g transform="translate(0 66)"><mask id="sidesAntenna02-a" style="mask-type:luminance" maskUnits="userSpaceOnUse" x="10" y="9" width="160" height="51"><g fill="#fff"><rect x="10" y="28" width="36" height="32" rx="4"/><path d="M160 9h2v20h-2z"/><rect x="134" y="28" width="36" height="32" rx="4"/></g></mask><g mask="url(#sidesAntenna02-a)"><path d="M0 0h180v76H0V0Z" fill="#039be5"/><path d="M0 0h180v76H0V0Z" fill="#fff" fill-opacity=".3"/><path fill="#000" fill-opacity=".1" d="M0 38h180v38H0z"/></g><path fill="#fff" fill-opacity=".4" d="M160 8h2v20h-2z"/><circle cx="161" cy="5" r="4" fill="#E1E6E8"/><circle cx="162" cy="4" r="2" fill="#fff"/></g><g transform="translate(41)"><mask id="topAntenna-a" style="mask-type:luminance" maskUnits="userSpaceOnUse" x="38" y="5" width="24" height="47"><path d="M38 38c0-1.1.9-2 2-2h20a2 2 0 0 1 2 2v14H38V38ZM48 5h4v31h-4z" fill="#fff"/></mask><g mask="url(#topAntenna-a)"><path d="M0 0h100v52H0V0Z" fill="#039be5"/><path d="M0 3h100v52H0V3Z" fill="#fff" fill-opacity=".3"/><path fill="#fff" fill-opacity=".2" d="M38 36h24v16H38z"/></g><circle cx="50" cy="8" r="8" fill="#FFE65C"/><circle cx="53" cy="5" r="3" fill="#fff"/></g><g transform="translate(25 44)"><mask id="faceSquare02-a" style="mask-type:luminance" maskUnits="userSpaceOnUse" x="0" y="0" width="130" height="120"><path d="M0 12A12 12 0 0 1 12 0h106a12 12 0 0 1 12 12v70a38 38 0 0 1-38 38H38A38 38 0 0 1 0 82V12Z" fill="#fff"/></mask><g mask="url(#faceSquare02-a)"><path d="M-2-2h134v124H-2V-2Z" fill="#039be5"/><g transform="translate(-1 -1)"></g></g></g><g transform="translate(52 124)"><path fill-rule="evenodd" clip-rule="evenodd" d="M18 10.22C18 21.78 24.47 28 38 28c13.52 0 20-6.34 20-17.78C58 9.5 57.17 8 55 8H21c-2.05 0-3 1.38-3 2.22Z" fill="#000" fill-opacity=".8"/><mask id="mouthSmile02-a" style="mask-type:luminance" maskUnits="userSpaceOnUse" x="18" y="8" width="40" height="20"><path fill-rule="evenodd" clip-rule="evenodd" d="M18 10.22C18 21.78 24.47 28 38 28c13.52 0 20-6.34 20-17.78C58 9.5 57.17 8 55 8H21c-2.05 0-3 1.38-3 2.22Z" fill="#fff"/></mask><g mask="url(#mouthSmile02-a)"><rect x="30" y="2" width="16" height="14" rx="2" fill="#fff"/></g></g><g transform="translate(38 76)"><g fill-rule="evenodd" clip-rule="evenodd"><path d="M53 0c34.75 0 49 17.47 49 31 0 13.53-19.59 17-49 17-29.05 0-51-3.47-51-17S17.11 0 53 0Z" fill="#000" fill-opacity=".8"/><path d="M28.82 34.65c-6.53-1.35-11.24-6.34-10.52-11.14.72-4.79 6.6-7.58 13.12-6.23 6.53 1.36 11.24 6.35 10.52 11.15-.72 4.8-6.6 7.59-13.12 6.23ZM75.42 34.65c-6.52 1.36-12.4-1.43-13.12-6.23-.72-4.8 4-9.8 10.52-11.15 6.52-1.35 12.4 1.44 13.12 6.24.72 4.81-4 9.8-10.52 11.15Z" fill="#25A6F5"/></g></g></g></svg>