<svg xmlns="http://www.w3.org/2000/svg" viewBox="0 0 180 180" fill="none" shape-rendering="auto"><metadata xmlns:rdf="http://www.w3.org/1999/02/22-rdf-syntax-ns#" xmlns:xsi="http://www.w3.org/2001/XMLSchema-instance" xmlns:dc="http://purl.org/dc/elements/1.1/" xmlns:dcterms="http://purl.org/dc/terms/"><rdf:RDF><rdf:Description><dc:title>Bottts</dc:title><dc:creator>Pablo Stanley</dc:creator><dc:source xsi:type="dcterms:URI">https://bottts.com/</dc:source><dcterms:license xsi:type="dcterms:URI">https://bottts.com/</dcterms:license><dc:rights>Remix of „Bottts” (https://bottts.com/) by „Pablo Stanley”, licensed under „Free for personal and commercial use” (https://bottts.com/)</dc:rights></rdf:Description></rdf:RDF></metadata><mask id="viewboxMask"><rect width="180" height="180" rx="0" ry="0" x="0" y="0" fill="#fff" /></mask><g mask="url(#viewboxMask)"><g transform="translate(0 66)"><mask id="sidesAntenna02-a" style="mask-type:luminance" maskUnits="userSpaceOnUse" x="10" y="9" width="160" height="51"><g fill="#fff"><rect x="10" y="28" width="36" height="32" rx="4"/><path d="M160 9h2v20h-2z"/><rect x="134" y="28" width="36" height="32" rx="4"/></g></mask><g mask="url(#sidesAntenna02-a)"><path d="M0 0h180v76H0V0Z" fill="#5e35b1"/><path d="M0 0h180v76H0V0Z" fill="#fff" fill-opacity=".3"/><path fill="#000" fill-opacity=".1" d="M0 38h180v38H0z"/></g><path fill="#fff" fill-opacity=".4" d="M160 8h2v20h-2z"/><circle cx="161" cy="5" r="4" fill="#E1E6E8"/><circle cx="162" cy="4" r="2" fill="#fff"/></g><g transform="translate(41)"><mask id="topHorns-a" style="mask-type:luminance" maskUnits="userSpaceOnUse" x="8" y="12" width="84" height="40"><g fill="#fff"><path d="M8 40h26v12H8z"/><path transform="matrix(-1 0 0 1 92 40)" d="M0 0h26v12H0z"/><path fill-rule="evenodd" clip-rule="evenodd" d="M16.52 13.74c0 7.84 5.39 20.71 13.72 27.04H11.36S7.84 22.66 13.43 14.1c.9-1.38 3.1-1.42 3.1-.36ZM84 14c.66 7.04-5.77 20.62-14 27h19s3.14-18.26-2-27c-1-1.7-3.14-1.45-3 0Z"/></g></mask><g mask="url(#topHorns-a)"><path d="M0 0h100v52H0V0Z" fill="#5e35b1"/><path d="M0 0h100v52H0V0Z" fill="#fff" fill-opacity=".3"/><path fill="#000" fill-opacity=".4" d="M0 40h100v12H0z"/><path fill-rule="evenodd" clip-rule="evenodd" d="M15.46 13h16.1v27H20.83c-7.45-7.85-5.36-27-5.36-27ZM84.82 13h7.75v27H81.82c5.75-7.8 3-27 3-27Z" fill="#fff" fill-opacity=".4"/></g></g><g transform="translate(25 44)"><mask id="faceSquare03-a" style="mask-type:luminance" maskUnits="userSpaceOnUse" x="0" y="0" width="130" height="120"><path fill-rule="evenodd" clip-rule="evenodd" d="M0 18A18 18 0 0 1 18 0h94a18 18 0 0 1 18 18v27.15a40 40 0 0 1-2.28 13.31L110.24 108a18 18 0 0 1-16.98 12H36.74a18 18 0 0 1-16.98-12L2.28 58.45A40 40 0 0 1 0 45.15V18Z" fill="#fff"/></mask><g mask="url(#faceSquare03-a)"><path d="M-2-2h134v124H-2V-2Z" fill="#5e35b1"/><g transform="translate(-1 -1)"></g></g></g><g transform="translate(52 124)"><rect x="24" y="6" width="27" height="8" rx="4" fill="#000" fill-opacity=".8"/></g><g transform="translate(38 76)"><path d="M96 2H8c-4.5 0-8 3.5-8 8.03V28c0 4.5 3.5 8 8 8h13c8 0 11 8 18 8h27c7 0 9-8 17-8h13c4.5 0 8-3.5 8-8V10c0-4.5-3.5-8-8-8Z" fill="#000" fill-opacity=".8"/><path d="M87 14H17c-3.5 0-5 3-5 5v2c0 2 1.5 5 5 5h12c6 0 11.62 8 17 8h14c5.38 0 9-8 15-8h12c3.5 0 5-3 5-5v-2c0-2-1.5-5-5-5Z" fill="#FF3D3D"/><path d="M22.44 36.09 37.26 2h11L31.4 40.78l-.76-.58c-2.38-1.82-4.83-3.69-8.2-4.11ZM11.48 36 26.26 2h4L15.48 36h-4Z" fill="#fff" fill-opacity=".2"/></g></g></svg>