<svg xmlns="http://www.w3.org/2000/svg" viewBox="0 0 180 180" fill="none" shape-rendering="auto"><metadata xmlns:rdf="http://www.w3.org/1999/02/22-rdf-syntax-ns#" xmlns:xsi="http://www.w3.org/2001/XMLSchema-instance" xmlns:dc="http://purl.org/dc/elements/1.1/" xmlns:dcterms="http://purl.org/dc/terms/"><rdf:RDF><rdf:Description><dc:title>Bottts</dc:title><dc:creator>Pablo Stanley</dc:creator><dc:source xsi:type="dcterms:URI">https://bottts.com/</dc:source><dcterms:license xsi:type="dcterms:URI">https://bottts.com/</dcterms:license><dc:rights>Remix of „Bottts” (https://bottts.com/) by „Pablo Stanley”, licensed under „Free for personal and commercial use” (https://bottts.com/)</dc:rights></rdf:Description></rdf:RDF></metadata><mask id="viewboxMask"><rect width="180" height="180" rx="0" ry="0" x="0" y="0" fill="#fff" /></mask><g mask="url(#viewboxMask)"><g transform="translate(0 66)"><g opacity=".9" stroke="#2A3544"><ellipse cx="32.5" cy="23" rx="16.5" ry="18" stroke-width="6"/><path d="M29.51 36.76c-7.4 4.29-17 1.55-21.42-6.1" stroke-width="4"/><ellipse cx="28.5" cy="52.5" rx="16.5" ry="14.5" stroke-width="4"/></g><g opacity=".9" stroke="#2A3544"><path d="M168.6 60.42c-4.27-7.41-13.95-9.84-21.6-5.42" stroke-width="4"/><ellipse cx="148.5" cy="22.5" rx="16.5" ry="15.5" stroke-width="6"/></g><mask id="sidesCables02-a" style="mask-type:luminance" maskUnits="userSpaceOnUse" x="21" y="0" width="138" height="72"><g fill="#fff"><rect x="21" y="27" width="16" height="22" rx="2"/><rect x="22" y="60" width="16" height="12" rx="2"/><rect x="143" y="42" width="16" height="22" rx="2"/><rect x="143" width="16" height="22" rx="2"/></g></mask><g mask="url(#sidesCables02-a)"><path d="M0 0h180v76H0V0Z" fill="#e53935"/><path d="M0 0h180v76H0V0Z" fill="#fff" fill-opacity=".3"/></g></g><g transform="translate(41)"><mask id="topBulb01-a" style="mask-type:luminance" maskUnits="userSpaceOnUse" x="22" y="0" width="56" height="52"><g fill="#fff"><path fill-rule="evenodd" clip-rule="evenodd" d="M32 16A16 16 0 0 1 48 0h4a16 16 0 0 1 16 16v16a8 8 0 0 1-8 8H40a8 8 0 0 1-8-8V16Z"/><rect x="22" y="40" width="56" height="12" rx="1"/></g></mask><g mask="url(#topBulb01-a)"><path d="M0 0h100v52H0V0Z" fill="#e53935"/><path d="M0 0h100v52H0V0Z" fill="#fff" fill-opacity=".3"/><path fill="#fff" fill-opacity=".4" d="M20-3h60v43H20z"/><path d="M49 3.5c4.93 0 9.37 2.13 12.44 5.52" stroke="#fff" stroke-width="2" stroke-linecap="round"/><path d="m49.83 26-9-9L38 19.83l10 10V40h4V29.97l10.14-10.14L59.31 17l-9 9h-.48Z" fill="#fff" fill-opacity=".8"/></g></g><g transform="translate(25 44)"><mask id="faceSquare02-a" style="mask-type:luminance" maskUnits="userSpaceOnUse" x="0" y="0" width="130" height="120"><path d="M0 12A12 12 0 0 1 12 0h106a12 12 0 0 1 12 12v70a38 38 0 0 1-38 38H38A38 38 0 0 1 0 82V12Z" fill="#fff"/></mask><g mask="url(#faceSquare02-a)"><path d="M-2-2h134v124H-2V-2Z" fill="#e53935"/><g transform="translate(-1 -1)"><g fill="#000"><path d="M27.3 65.2a2.1 2.1 0 1 0 0-4.2 2.1 2.1 0 0 0 0 4.2ZM35.7 69.41a2.1 2.1 0 1 1-4.2 0 2.1 2.1 0 0 1 4.2 0ZM35.7 82.03a2.1 2.1 0 1 1-4.2 0 2.1 2.1 0 0 1 4.2 0ZM35.7 94.66a2.1 2.1 0 1 1-4.2 0 2.1 2.1 0 0 1 4.2 0ZM34.1 109.2a2.1 2.1 0 1 0 0-4.2 2.1 2.1 0 0 0 0 4.2ZM49.2 107.1a2.1 2.1 0 1 1-4.2 0 2.1 2.1 0 0 1 4.2 0ZM27.3 90.45a2.1 2.1 0 1 0 0-4.2 2.1 2.1 0 0 0 0 4.2ZM29.2 101.1a2.1 2.1 0 1 1-4.2 0 2.1 2.1 0 0 1 4.2 0ZM51.1 103.2a2.1 2.1 0 1 0 0-4.2 2.1 2.1 0 0 0 0 4.2ZM42 88.34a2.1 2.1 0 1 1-4.2 0 2.1 2.1 0 0 1 4.2 0ZM39.9 103.07a2.1 2.1 0 1 0 0-4.2 2.1 2.1 0 0 0 0 4.2ZM29.4 75.72a2.1 2.1 0 1 1-4.2 0 2.1 2.1 0 0 1 4.2 0ZM39.9 77.83a2.1 2.1 0 1 0 0-4.2 2.1 2.1 0 0 0 0 4.2ZM10.5 94.66a2.1 2.1 0 1 1-4.2 0 2.1 2.1 0 0 1 4.2 0ZM8.4 84.14a2.1 2.1 0 1 0 0-4.2 2.1 2.1 0 0 0 0 4.2ZM10.5 107.28a2.1 2.1 0 1 1-4.2 0 2.1 2.1 0 0 1 4.2 0ZM2.1 90.45a2.1 2.1 0 1 0 0-4.2 2.1 2.1 0 0 0 0 4.2ZM4.2 100.97a2.1 2.1 0 1 1-4.2 0 2.1 2.1 0 0 1 4.2 0ZM14.7 90.45a2.1 2.1 0 1 0 0-4.2 2.1 2.1 0 0 0 0 4.2ZM16.8 100.97a2.1 2.1 0 1 1-4.2 0 2.1 2.1 0 0 1 4.2 0ZM8.4 71.52a2.1 2.1 0 1 0 0-4.2 2.1 2.1 0 0 0 0 4.2ZM4.2 75.72a2.1 2.1 0 1 1-4.2 0 2.1 2.1 0 0 1 4.2 0ZM14.7 65.2a2.1 2.1 0 1 0 0-4.2 2.1 2.1 0 0 0 0 4.2ZM16.8 75.72a2.1 2.1 0 1 1-4.2 0 2.1 2.1 0 0 1 4.2 0ZM21 96.76a2.1 2.1 0 1 0 0-4.2 2.1 2.1 0 0 0 0 4.2ZM23.1 82.03a2.1 2.1 0 1 1-4.2 0 2.1 2.1 0 0 1 4.2 0ZM21 109.38a2.1 2.1 0 1 0 0-4.2 2.1 2.1 0 0 0 0 4.2ZM35.7 119.9a2.1 2.1 0 1 1-4.2 0 2.1 2.1 0 0 1 4.2 0ZM27.3 115.69a2.1 2.1 0 1 0 0-4.2 2.1 2.1 0 0 0 0 4.2ZM42 113.59a2.1 2.1 0 1 1-4.2 0 2.1 2.1 0 0 1 4.2 0ZM8.4 122a2.1 2.1 0 1 0 0-4.2 2.1 2.1 0 0 0 0 4.2ZM4.2 113.59a2.1 2.1 0 1 1-4.2 0 2.1 2.1 0 0 1 4.2 0ZM14.7 115.69a2.1 2.1 0 1 0 0-4.2 2.1 2.1 0 0 0 0 4.2ZM23.1 119.9a2.1 2.1 0 1 1-4.2 0 2.1 2.1 0 0 1 4.2 0ZM21 71.52a2.1 2.1 0 1 0 0-4.2 2.1 2.1 0 0 0 0 4.2Z" fill-opacity=".2"/><path d="M117.3 4.2a2.1 2.1 0 1 0 0-4.2 2.1 2.1 0 0 0 0 4.2ZM125.7 8.41a2.1 2.1 0 1 1-4.2 0 2.1 2.1 0 0 1 4.2 0ZM125.7 21.03a2.1 2.1 0 1 1-4.2 0 2.1 2.1 0 0 1 4.2 0ZM125.7 33.66a2.1 2.1 0 1 1-4.2 0 2.1 2.1 0 0 1 4.2 0ZM123.6 48.38a2.1 2.1 0 1 0 0-4.2 2.1 2.1 0 0 0 0 4.2ZM119.4 27.34a2.1 2.1 0 1 1-4.2 0 2.1 2.1 0 0 1 4.2 0ZM117.3 42.07a2.1 2.1 0 1 0 0-4.2 2.1 2.1 0 0 0 0 4.2ZM132 27.34a2.1 2.1 0 1 1-4.2 0 2.1 2.1 0 0 1 4.2 0ZM129.9 42.07a2.1 2.1 0 1 0 0-4.2 2.1 2.1 0 0 0 0 4.2ZM119.4 14.72a2.1 2.1 0 1 1-4.2 0 2.1 2.1 0 0 1 4.2 0ZM129.9 16.83a2.1 2.1 0 1 0 0-4.2 2.1 2.1 0 0 0 0 4.2ZM100.5 33.66a2.1 2.1 0 1 1-4.2 0 2.1 2.1 0 0 1 4.2 0ZM98.4 23.14a2.1 2.1 0 1 0 0-4.2 2.1 2.1 0 0 0 0 4.2ZM100.5 46.28a2.1 2.1 0 1 1-4.2 0 2.1 2.1 0 0 1 4.2 0ZM92.1 29.45a2.1 2.1 0 1 0 0-4.2 2.1 2.1 0 0 0 0 4.2ZM106.8 27.34a2.1 2.1 0 1 1-4.2 0 2.1 2.1 0 0 1 4.2 0ZM104.7 42.07a2.1 2.1 0 1 0 0-4.2 2.1 2.1 0 0 0 0 4.2ZM100.5 8.41a2.1 2.1 0 1 1-4.2 0 2.1 2.1 0 0 1 4.2 0ZM92.1 16.83a2.1 2.1 0 1 0 0-4.2 2.1 2.1 0 0 0 0 4.2ZM106.8 2.1a2.1 2.1 0 1 1-4.2 0 2.1 2.1 0 0 1 4.2 0ZM104.7 16.83a2.1 2.1 0 1 0 0-4.2 2.1 2.1 0 0 0 0 4.2ZM113.1 33.66a2.1 2.1 0 1 1-4.2 0 2.1 2.1 0 0 1 4.2 0ZM111 23.14a2.1 2.1 0 1 0 0-4.2 2.1 2.1 0 0 0 0 4.2ZM113.1 46.28a2.1 2.1 0 1 1-4.2 0 2.1 2.1 0 0 1 4.2 0ZM123.6 61a2.1 2.1 0 1 0 0-4.2 2.1 2.1 0 0 0 0 4.2ZM132 52.59a2.1 2.1 0 1 1-4.2 0 2.1 2.1 0 0 1 4.2 0ZM104.7 54.69a2.1 2.1 0 1 0 0-4.2 2.1 2.1 0 0 0 0 4.2ZM113.1 58.9a2.1 2.1 0 1 1-4.2 0 2.1 2.1 0 0 1 4.2 0ZM111 10.52a2.1 2.1 0 1 0 0-4.2 2.1 2.1 0 0 0 0 4.2Z" fill-opacity=".1"/></g></g></g></g><g transform="translate(52 124)"><rect x="4" y="5" width="68" height="22" rx="5" fill="#000" fill-opacity=".2"/><rect x="8" y="9" width="60" height="14" rx="2" fill="#000" fill-opacity=".6"/><path fill-rule="evenodd" clip-rule="evenodd" d="m20 17 6-8H14l6 8ZM32 17l6-8H26l6 8ZM44 17l6-8H38l6 8ZM56 17l6-8H50l6 8Z" fill="#E1E6E8"/></g><g transform="translate(38 76)"><rect y="4" width="104" height="42" rx="4" fill="#000" fill-opacity=".8"/><rect x="28" y="25" width="10" height="11" rx="2" fill="#8BDDFF"/><rect x="66" y="25" width="10" height="11" rx="2" fill="#8BDDFF"/><path fill-rule="evenodd" clip-rule="evenodd" d="M21 4h8L12 46H4L21 4Z" fill="#fff" fill-opacity=".4"/></g></g></svg>