<svg xmlns="http://www.w3.org/2000/svg" viewBox="0 0 180 180" fill="none" shape-rendering="auto"><metadata xmlns:rdf="http://www.w3.org/1999/02/22-rdf-syntax-ns#" xmlns:xsi="http://www.w3.org/2001/XMLSchema-instance" xmlns:dc="http://purl.org/dc/elements/1.1/" xmlns:dcterms="http://purl.org/dc/terms/"><rdf:RDF><rdf:Description><dc:title>Bottts</dc:title><dc:creator>Pablo Stanley</dc:creator><dc:source xsi:type="dcterms:URI">https://bottts.com/</dc:source><dcterms:license xsi:type="dcterms:URI">https://bottts.com/</dcterms:license><dc:rights>Remix of „Bottts” (https://bottts.com/) by „Pablo Stanley”, licensed under „Free for personal and commercial use” (https://bottts.com/)</dc:rights></rdf:Description></rdf:RDF></metadata><mask id="viewboxMask"><rect width="180" height="180" rx="0" ry="0" x="0" y="0" fill="#fff" /></mask><g mask="url(#viewboxMask)"><g transform="translate(0 66)"><mask id="sidesRound-a" style="mask-type:luminance" maskUnits="userSpaceOnUse" x="12" y="16" width="156" height="45"><g fill="#fff"><ellipse cx="150" cy="38.5" rx="18" ry="22.5"/><ellipse cx="18" cy="22.5" rx="18" ry="22.5" transform="matrix(-1 0 0 1 48 16)"/></g></mask><g mask="url(#sidesRound-a)"><path d="M0 0h180v76H0V0Z" fill="#546e7a"/><path d="M0 0h180v76H0V0Z" fill="#fff" fill-opacity=".3"/><path fill="#000" fill-opacity=".2" d="M20 0h140v76H20z"/></g></g><g transform="translate(41)"><mask id="topAntenna-a" style="mask-type:luminance" maskUnits="userSpaceOnUse" x="38" y="5" width="24" height="47"><path d="M38 38c0-1.1.9-2 2-2h20a2 2 0 0 1 2 2v14H38V38ZM48 5h4v31h-4z" fill="#fff"/></mask><g mask="url(#topAntenna-a)"><path d="M0 0h100v52H0V0Z" fill="#546e7a"/><path d="M0 3h100v52H0V3Z" fill="#fff" fill-opacity=".3"/><path fill="#fff" fill-opacity=".2" d="M38 36h24v16H38z"/></g><circle cx="50" cy="8" r="8" fill="#FFE65C"/><circle cx="53" cy="5" r="3" fill="#fff"/></g><g transform="translate(25 44)"><mask id="faceSquare03-a" style="mask-type:luminance" maskUnits="userSpaceOnUse" x="0" y="0" width="130" height="120"><path fill-rule="evenodd" clip-rule="evenodd" d="M0 18A18 18 0 0 1 18 0h94a18 18 0 0 1 18 18v27.15a40 40 0 0 1-2.28 13.31L110.24 108a18 18 0 0 1-16.98 12H36.74a18 18 0 0 1-16.98-12L2.28 58.45A40 40 0 0 1 0 45.15V18Z" fill="#fff"/></mask><g mask="url(#faceSquare03-a)"><path d="M-2-2h134v124H-2V-2Z" fill="#546e7a"/><g transform="translate(-1 -1)"></g></g></g><g transform="translate(52 124)"><rect x="16" y="8" width="44" height="4" rx="2" fill="#000" fill-opacity=".8"/></g><g transform="translate(38 76)"><path d="M96 2H8c-4.5 0-8 3.5-8 8.03V28c0 4.5 3.5 8 8 8h13c8 0 11 8 18 8h27c7 0 9-8 17-8h13c4.5 0 8-3.5 8-8V10c0-4.5-3.5-8-8-8Z" fill="#000" fill-opacity=".8"/><path d="M87 14H17c-3.5 0-5 3-5 5v2c0 2 1.5 5 5 5h12c6 0 11.62 8 17 8h14c5.38 0 9-8 15-8h12c3.5 0 5-3 5-5v-2c0-2-1.5-5-5-5Z" fill="#FF3D3D"/><path d="M22.44 36.09 37.26 2h11L31.4 40.78l-.76-.58c-2.38-1.82-4.83-3.69-8.2-4.11ZM11.48 36 26.26 2h4L15.48 36h-4Z" fill="#fff" fill-opacity=".2"/></g></g></svg>